<svg xmlns="http://www.w3.org/2000/svg" viewBox="0 0 960 740" role="img" aria-labelledby="title desc"><title id="title">AWS Lakehouse com Governança</title><desc id="desc">Fluxo de produtores para data lake em S3 (Bronze, Silver, Gold) com catálogo, governança, consulta e consumo, incluindo observabilidade e auditoria.</desc><defs><style><![CDATA[text,tspan{font-family:ui-monospace,SFMono-Regular,Menlo,Monaco,Consolas,"Liberation Mono","Courier New",monospace;fill:#e6edf3;font-size:14px}.title{font-weight:700;font-size:20px}.subtitle{fill:#9aa4b2;font-size:13px}.box{fill:#161b22;stroke:#30363d;stroke-width:1.2;rx:8;ry:8}.lane{fill:none;stroke:#30363d;stroke-width:1;stroke-dasharray:4 4}.arrow{stroke:#9aa4b2;stroke-width:1.4;marker-end:url(#a)}.arrow-strong{stroke:#1f6feb;stroke-width:2;marker-end:url(#b)}.pill{fill:#0b1220;stroke:#1f6feb;stroke-width:1.1;rx:12;ry:12}.label{fill:#9aa4b2;font-size:12px}svg{background:#0d1117}]]></style><marker id="a" viewBox="0 0 10 10" refX="9" refY="5" markerWidth="8" markerHeight="8" orient="auto-start-reverse"><path d="M0 0 10 5 0 10Z" fill="#9aa4b2"/></marker><marker id="b" viewBox="0 0 10 10" refX="9" refY="5" markerWidth="9" markerHeight="9" orient="auto-start-reverse"><path d="M0 0 10 5 0 10Z" fill="#1f6feb"/></marker></defs><text x="24" y="36" class="title">AWS Lakehouse (Governança)</text><text x="24" y="58" class="subtitle">Produtores → Ingestão → S3 (Bronze/Silver/Gold) → Catálogo/Governança → Consulta → BI/Consumo → Observabilidade</text><path d="M160 80V700" class="lane"/><path d="M360 80V700" class="lane"/><path d="M560 80V700" class="lane"/><path d="M760 80V700" class="lane"/><rect x="40" y="100" width="220" height="120" class="box"/><text x="150" y="130" text-anchor="middle">Produtores</text><text x="150" y="155" text-anchor="middle" class="label">Apps • APIs • DBs</text><text x="150" y="175" text-anchor="middle" class="label">Batch • CDC • IoT</text><rect x="40" y="260" width="220" height="140" class="box"/><text x="150" y="290" text-anchor="middle">Ingestão</text><text x="150" y="315" text-anchor="middle" class="label">AWS DMS (CDC)</text><text x="150" y="335" text-anchor="middle" class="label">Glue Jobs (Batch)</text><text x="150" y="355" text-anchor="middle" class="label">Lambda • Kinesis</text><line x1="260" y1="160" x2="360" y2="160" class="arrow"/><line x1="260" y1="330" x2="360" y2="330" class="arrow-strong"/><rect x="360" y="120" width="240" height="430" class="box"/><text x="480" y="150" text-anchor="middle">Data Lake — Amazon S3</text><rect x="380" y="180" width="200" height="90" class="box"/><text x="480" y="205" text-anchor="middle">Bronze (Raw)</text><text x="480" y="230" text-anchor="middle" class="label">Dados brutos, esquema flexível</text><rect x="380" y="290" width="200" height="90" class="box"/><text x="480" y="315" text-anchor="middle">Silver (Curated)</text><text x="480" y="340" text-anchor="middle" class="label">Limpeza • Conformidade</text><rect x="380" y="400" width="200" height="90" class="box"/><text x="480" y="425" text-anchor="middle">Gold (Serving)</text><text x="480" y="450" text-anchor="middle" class="label">Marts • KPIs • SLAs</text><line x1="260" y1="330" x2="380" y2="225" class="arrow"/><rect x="620" y="180" width="280" height="150" class="box"/><text x="760" y="205" text-anchor="middle">Catálogo & Governança</text><text x="760" y="230" text-anchor="middle" class="label">Glue Data Catalog</text><text x="760" y="250" text-anchor="middle" class="label">Lake Formation (LF-Tags)</text><text x="760" y="270" text-anchor="middle" class="label">IAM • S3 Policies</text><line x1="580" y1="225" x2="620" y2="225" class="arrow"/><line x1="580" y1="335" x2="620" y2="335" class="arrow"/><line x1="580" y1="445" x2="620" y2="265" class="arrow"/><rect x="620" y="360" width="280" height="120" class="box"/><text x="760" y="385" text-anchor="middle">Consulta / Processamento</text><text x="760" y="408" text-anchor="middle" class="label">Athena • Redshift • EMR/Spark • Glue</text><line x1="580" y1="335" x2="620" y2="395" class="arrow"/><line x1="580" y1="445" x2="620" y2="420" class="arrow"/><rect x="620" y="500" width="280" height="110" class="box"/><text x="760" y="525" text-anchor="middle">BI / Consumo</text><text x="760" y="548" text-anchor="middle" class="label">QuickSight • Apps • APIs • Exports</text><rect x="360" y="570" width="240" height="110" class="box"/><text x="480" y="595" text-anchor="middle">Observabilidade & Auditoria</text><text x="480" y="618" text-anchor="middle" class="label">CloudWatch • CloudTrail • Logs</text><line x1="760" y1="480" x2="760" y2="500" class="arrow"/><line x1="760" y1="555" x2="600" y2="600" class="arrow"/><rect x="392" y="505" width="88" height="28" class="pill"/><text x="436" y="524" text-anchor="middle" class="label">DQ/Qualidade</text><rect x="500" y="505" width="88" height="28" class="pill"/><text x="544" y="524" text-anchor="middle" class="label">Segurança</text><text x="160" y="92" text-anchor="middle" class="label">Origem</text><text x="360" y="92" text-anchor="middle" class="label">Dados</text><text x="560" y="92" text-anchor="middle" class="label">Governança</text><text x="760" y="92" text-anchor="middle" class="label">Serviço</text></svg>
